
<svg width="24" height="24" viewBox="0 0 24 24" fill="none" xmlns="http://www.w3.org/2000/svg">
<rect y="-0.000488281" width="24" height="24" rx="12" fill="black"/>
<path d="M11.2781 14.8469L6.3306 15.9445C6.15014 15.9878 6.0148 16.1611 6.0148 16.3344V19.5984C6.0148 19.8729 6.24036 20.0462 6.52609 19.9884L13.4285 18.4575C13.7142 18.3997 13.8345 18.1398 13.7142 17.8943L12.4661 15.4246C12.2706 15.0346 12.4661 14.6302 12.9022 14.5436L17.4136 13.5037C17.7293 13.4315 18 13.1138 18 12.796V9.77753C18 9.50312 17.7745 9.31537 17.4887 9.38758L10.9773 10.8752C10.5713 10.9618 10.3908 11.3373 10.5713 11.6984L11.7142 13.9659C11.9097 14.3558 11.7142 14.7458 11.2781 14.8469Z" fill="white"/>
<path d="M8.01507 6.68693L9.30834 9.2288C9.47376 9.56098 9.30834 9.90761 8.93239 9.97982L6.54136 10.5142C6.2406 10.5864 6 10.8753 6 11.1641V13.8937C6 14.3559 6.39098 14.6447 6.85715 14.5436L9.08277 14.0526C9.38352 13.9948 9.62414 13.6915 9.62414 13.4027L9.63917 10.6009C9.63917 10.2109 9.97001 9.82095 10.361 9.7343L17.6543 8.05896C17.8349 8.01564 17.9701 7.84232 17.9701 7.66901V4.405C17.9701 4.1306 17.7446 3.94284 17.4588 4.01506L8.3008 6.12366C8.01507 6.18144 7.89477 6.4414 8.01507 6.68693Z" fill="white"/>
</svg>
