<svg id="Capa_1" data-name="Capa 1" xmlns="http://www.w3.org/2000/svg" viewBox="0 0 500 500"><defs><style>.cls-1{fill:#c71585;}.cls-2{fill:#fff;}</style></defs><path class="cls-1" d="M356,144H207.65A63.71,63.71,0,0,0,144,207.65V292.4A63.69,63.69,0,0,0,207.65,356H292.4A63.67,63.67,0,0,0,356,292.4V144Z"/><path class="cls-2" d="M328.66,171.34V292.4a36.27,36.27,0,0,1-36.26,36.26H207.65a36.29,36.29,0,0,1-36.32-36.26V207.65a36.3,36.3,0,0,1,36.32-36.31h30.29v36.31H207.65V292.4H292.4V240.28H257.92V210.94c30.34-6.67,34.13-28.65,34.48-36.67v-2.93Z"/></svg>